<svg xmlns="http://www.w3.org/2000/svg" xmlns:xlink="http://www.w3.org/1999/xlink" width="500" zoomAndPan="magnify" viewBox="0 0 375 374.999991" height="500" preserveAspectRatio="xMidYMid meet" version="1.0"><defs><clipPath id="1119a4c4f5"><path d="M 8 3 L 210 3 L 210 247 L 8 247 Z M 8 3 " clip-rule="nonzero"/></clipPath><clipPath id="41a30653c7"><path d="M -50.785156 99.167969 L 118.316406 -10.871094 L 244.714844 183.375 L 75.613281 293.414062 Z M -50.785156 99.167969 " clip-rule="nonzero"/></clipPath><clipPath id="d7874de85c"><path d="M -50.785156 99.167969 L 118.316406 -10.871094 L 244.714844 183.375 L 75.613281 293.414062 Z M -50.785156 99.167969 " clip-rule="nonzero"/></clipPath><clipPath id="6fcbd0d631"><path d="M 64 3 L 210 3 L 210 247 L 64 247 Z M 64 3 " clip-rule="nonzero"/></clipPath><clipPath id="7907f7cba6"><path d="M -50.785156 99.167969 L 118.316406 -10.871094 L 244.714844 183.375 L 75.613281 293.414062 Z M -50.785156 99.167969 " clip-rule="nonzero"/></clipPath><clipPath id="1d122982f9"><path d="M -50.785156 99.167969 L 118.316406 -10.871094 L 244.714844 183.375 L 75.613281 293.414062 Z M -50.785156 99.167969 " clip-rule="nonzero"/></clipPath><clipPath id="bf6d4b0f2b"><path d="M 8 3 L 184 3 L 184 244 L 8 244 Z M 8 3 " clip-rule="nonzero"/></clipPath><clipPath id="9baf544cc7"><path d="M -50.785156 99.167969 L 118.316406 -10.871094 L 244.714844 183.375 L 75.613281 293.414062 Z M -50.785156 99.167969 " clip-rule="nonzero"/></clipPath><clipPath id="8d62b7da90"><path d="M -50.785156 99.167969 L 118.316406 -10.871094 L 244.714844 183.375 L 75.613281 293.414062 Z M -50.785156 99.167969 " clip-rule="nonzero"/></clipPath><clipPath id="7b38811bd7"><path d="M 144 95 L 176 95 L 176 162 L 144 162 Z M 144 95 " clip-rule="nonzero"/></clipPath><clipPath id="c27d3ecfbf"><path d="M -50.785156 99.167969 L 118.316406 -10.871094 L 244.714844 183.375 L 75.613281 293.414062 Z M -50.785156 99.167969 " clip-rule="nonzero"/></clipPath><clipPath id="cc1a4c51a8"><path d="M -50.785156 99.167969 L 118.316406 -10.871094 L 244.714844 183.375 L 75.613281 293.414062 Z M -50.785156 99.167969 " clip-rule="nonzero"/></clipPath><clipPath id="a253d0b252"><path d="M 164 136 L 368 136 L 368 372 L 164 372 Z M 164 136 " clip-rule="nonzero"/></clipPath><clipPath id="83f8c3ee60"><path d="M 155.320312 149.984375 L 356.429688 133.945312 L 374.851562 364.964844 L 173.742188 381 Z M 155.320312 149.984375 " clip-rule="nonzero"/></clipPath><clipPath id="b3fca2d2a7"><path d="M 155.320312 149.984375 L 356.429688 133.945312 L 374.851562 364.964844 L 173.742188 381 Z M 155.320312 149.984375 " clip-rule="nonzero"/></clipPath><clipPath id="20d2fb3d94"><path d="M 207 138 L 368 138 L 368 372 L 207 372 Z M 207 138 " clip-rule="nonzero"/></clipPath><clipPath id="e14b5d9972"><path d="M 155.320312 149.984375 L 356.429688 133.945312 L 374.851562 364.964844 L 173.742188 381 Z M 155.320312 149.984375 " clip-rule="nonzero"/></clipPath><clipPath id="1badac8521"><path d="M 155.320312 149.984375 L 356.429688 133.945312 L 374.851562 364.964844 L 173.742188 381 Z M 155.320312 149.984375 " clip-rule="nonzero"/></clipPath><clipPath id="342734667b"><path d="M 164 136 L 347 136 L 347 357 L 164 357 Z M 164 136 " clip-rule="nonzero"/></clipPath><clipPath id="f216abdeca"><path d="M 155.320312 149.984375 L 356.429688 133.945312 L 374.851562 364.964844 L 173.742188 381 Z M 155.320312 149.984375 " clip-rule="nonzero"/></clipPath><clipPath id="ccc74c47e0"><path d="M 155.320312 149.984375 L 356.429688 133.945312 L 374.851562 364.964844 L 173.742188 381 Z M 155.320312 149.984375 " clip-rule="nonzero"/></clipPath><clipPath id="50fe27bbad"><path d="M 315 242 L 339 242 L 339 311 L 315 311 Z M 315 242 " clip-rule="nonzero"/></clipPath><clipPath id="d697a4ab16"><path d="M 155.320312 149.984375 L 356.429688 133.945312 L 374.851562 364.964844 L 173.742188 381 Z M 155.320312 149.984375 " clip-rule="nonzero"/></clipPath><clipPath id="9d50c29677"><path d="M 155.320312 149.984375 L 356.429688 133.945312 L 374.851562 364.964844 L 173.742188 381 Z M 155.320312 149.984375 " clip-rule="nonzero"/></clipPath><clipPath id="3cb6f6097f"><path d="M 218.84375 43.570312 L 311.84375 43.570312 L 311.84375 96.820312 L 218.84375 96.820312 Z M 218.84375 43.570312 " clip-rule="nonzero"/></clipPath></defs><g clip-path="url(#1119a4c4f5)"><g clip-path="url(#41a30653c7)"><g clip-path="url(#d7874de85c)"><path fill="#5271ff" d="M 132.28125 10.742188 L 194.746094 106.734375 C 222.28125 149.050781 209.898438 206.003906 167.035156 232.972656 C 148.148438 244.859375 126.515625 248.722656 105.949219 245.628906 L 105.949219 245.652344 L 87.226562 243.105469 C 82.992188 242.828125 78.785156 242.253906 74.632812 241.394531 C 74.527344 241.371094 74.417969 241.351562 74.3125 241.328125 C 51.039062 236.421875 29.589844 222.535156 15.667969 201.140625 L 9.574219 191.777344 C 6.992188 187.808594 8.113281 182.5 12.082031 179.921875 L 58.335938 149.820312 C 60.207031 148.605469 62.375 148.222656 64.414062 148.5625 L 90.066406 151.816406 C 92.605469 152.035156 95.023438 153.371094 96.523438 155.671875 L 103.078125 165.746094 C 103.371094 166.199219 103.6875 166.625 104.011719 167.042969 C 111.175781 161.199219 112.953125 150.757812 107.796875 142.835938 L 45.335938 46.847656 C 42.753906 42.878906 43.875 37.570312 47.839844 34.992188 L 94.097656 4.890625 C 95.589844 3.917969 97.277344 3.472656 98.933594 3.507812 C 98.9375 3.507812 98.941406 3.507812 98.945312 3.507812 C 99.527344 3.519531 100.105469 3.597656 100.675781 3.726562 L 125.652344 6.875 C 126.019531 6.898438 126.386719 6.941406 126.75 7.011719 L 126.78125 7.015625 L 126.777344 7.015625 C 128.960938 7.453125 130.972656 8.730469 132.28125 10.742188 Z M 132.28125 10.742188 " fill-opacity="1" fill-rule="nonzero"/></g></g></g><g clip-path="url(#6fcbd0d631)"><g clip-path="url(#7907f7cba6)"><g clip-path="url(#1d122982f9)"><path fill="#000000" d="M 132.28125 10.742188 L 194.746094 106.734375 C 222.28125 149.050781 209.898438 206.003906 167.035156 232.972656 C 148.148438 244.859375 126.515625 248.722656 105.949219 245.628906 L 105.949219 245.652344 L 87.226562 243.105469 C 105.453125 244.304688 124.132812 240.058594 140.703125 229.632812 C 183.566406 202.660156 195.949219 145.707031 168.410156 103.390625 L 105.949219 7.402344 C 104.6875 5.460938 102.769531 4.203125 100.675781 3.726562 L 125.648438 6.875 C 126.019531 6.898438 126.386719 6.941406 126.75 7.011719 L 126.777344 7.015625 C 128.960938 7.453125 130.972656 8.730469 132.28125 10.742188 Z M 70.191406 152.332031 L 76.746094 162.40625 C 82.128906 170.683594 93.113281 173.683594 101.640625 168.714844 C 102.496094 168.21875 103.273438 167.648438 104.011719 167.046875 C 103.6875 166.625 103.371094 166.199219 103.078125 165.746094 L 96.523438 155.671875 C 95.023438 153.371094 92.605469 152.035156 90.066406 151.816406 L 64.414062 148.5625 C 66.699219 148.945312 68.824219 150.234375 70.191406 152.332031 Z M 70.191406 152.332031 " fill-opacity="1" fill-rule="nonzero"/></g></g></g><g clip-path="url(#bf6d4b0f2b)"><g clip-path="url(#9baf544cc7)"><g clip-path="url(#8d62b7da90)"><path fill="#5271ff" d="M 140.703125 229.632812 C 183.566406 202.660156 195.949219 145.707031 168.410156 103.390625 L 105.949219 7.402344 C 104.6875 5.460938 102.769531 4.203125 100.675781 3.726562 C 100.105469 3.597656 99.527344 3.519531 98.941406 3.507812 C 98.941406 3.507812 98.9375 3.507812 98.933594 3.507812 C 97.277344 3.472656 95.589844 3.917969 94.09375 4.890625 L 47.839844 34.992188 C 43.875 37.570312 42.753906 42.878906 45.335938 46.847656 L 107.796875 142.835938 C 112.953125 150.757812 111.175781 161.203125 104.011719 167.046875 C 103.273438 167.648438 102.496094 168.21875 101.640625 168.714844 C 93.113281 173.683594 82.128906 170.683594 76.746094 162.40625 L 70.191406 152.332031 C 68.824219 150.238281 66.699219 148.945312 64.414062 148.5625 C 62.375 148.222656 60.207031 148.605469 58.335938 149.820312 L 12.082031 179.921875 C 8.113281 182.5 6.992188 187.808594 9.574219 191.777344 L 15.667969 201.140625 C 29.589844 222.535156 51.039062 236.421875 74.3125 241.328125 C 74.417969 241.351562 74.527344 241.371094 74.632812 241.394531 C 78.785156 242.253906 82.992188 242.828125 87.226562 243.105469 C 105.449219 244.304688 124.132812 240.058594 140.703125 229.632812 Z M 165.039062 113.070312 C 171.867188 125.832031 175.527344 140.03125 175.1875 154.535156 C 175.105469 158.132812 172.753906 160.929688 169.078125 161.261719 C 165.789062 161.5625 162.269531 158.519531 162.347656 155.148438 C 162.421875 151.988281 162.324219 148.828125 162.019531 145.679688 C 161.867188 144.097656 161.640625 142.527344 161.414062 140.953125 C 161.363281 140.652344 161.335938 140.5 161.324219 140.425781 C 161.277344 140.167969 161.226562 139.910156 161.175781 139.652344 C 161.015625 138.871094 160.847656 138.085938 160.664062 137.308594 C 159.929688 134.167969 158.992188 131.074219 157.863281 128.050781 C 157.289062 126.523438 156.667969 125.011719 156 123.519531 C 155.890625 123.28125 155.78125 123.046875 155.671875 122.8125 C 155.648438 122.765625 155.570312 122.601562 155.414062 122.285156 C 155.03125 121.550781 154.660156 120.8125 154.269531 120.082031 C 152.566406 116.894531 153.113281 113.359375 156.148438 111.1875 C 158.804688 109.285156 163.445312 110.097656 165.039062 113.070312 Z M 154.175781 107.6875 C 151.15625 109.652344 147.3125 108.640625 145.285156 105.804688 C 143.257812 102.980469 144.347656 98.746094 147.164062 96.914062 C 150.179688 94.949219 154.023438 95.964844 156.054688 98.796875 C 158.078125 101.621094 156.992188 105.855469 154.175781 107.6875 Z M 154.175781 107.6875 " fill-opacity="1" fill-rule="nonzero"/></g></g></g><g clip-path="url(#7b38811bd7)"><g clip-path="url(#c27d3ecfbf)"><g clip-path="url(#cc1a4c51a8)"><path fill="#ffd891" d="M 165.039062 113.070312 C 171.867188 125.832031 175.527344 140.03125 175.1875 154.535156 C 175.105469 158.132812 172.753906 160.929688 169.078125 161.261719 C 165.789062 161.5625 162.269531 158.519531 162.347656 155.148438 C 162.421875 151.988281 162.324219 148.828125 162.019531 145.679688 C 161.867188 144.097656 161.640625 142.527344 161.414062 140.953125 C 161.363281 140.652344 161.335938 140.5 161.324219 140.425781 C 161.277344 140.167969 161.226562 139.910156 161.175781 139.652344 C 161.015625 138.871094 160.847656 138.085938 160.664062 137.308594 C 159.929688 134.167969 158.992188 131.074219 157.863281 128.050781 C 157.289062 126.523438 156.667969 125.011719 156 123.519531 C 155.890625 123.28125 155.78125 123.046875 155.671875 122.8125 C 155.648438 122.765625 155.570312 122.601562 155.414062 122.285156 C 155.03125 121.550781 154.660156 120.8125 154.269531 120.082031 C 152.566406 116.894531 153.113281 113.359375 156.148438 111.1875 C 158.804688 109.285156 163.445312 110.097656 165.039062 113.070312 Z M 147.164062 96.914062 C 144.347656 98.746094 143.257812 102.980469 145.285156 105.804688 C 147.3125 108.640625 151.15625 109.652344 154.175781 107.6875 C 156.992188 105.855469 158.078125 101.621094 156.054688 98.796875 C 154.023438 95.964844 150.179688 94.949219 147.164062 96.914062 Z M 147.164062 96.914062 " fill-opacity="1" fill-rule="nonzero"/></g></g></g><g clip-path="url(#a253d0b252)"><g clip-path="url(#83f8c3ee60)"><g clip-path="url(#b3fca2d2a7)"><path fill="#5271ff" d="M 358.394531 159.605469 L 367.496094 273.765625 C 371.511719 324.089844 333.460938 368.242188 282.921875 371.496094 C 260.652344 372.929688 239.796875 366.003906 223.195312 353.472656 L 223.1875 353.496094 L 207.945312 342.328125 C 204.355469 340.0625 200.933594 337.550781 197.695312 334.816406 C 197.609375 334.746094 197.527344 334.675781 197.441406 334.605469 C 179.332031 319.191406 167.101562 296.75 165.074219 271.308594 L 164.1875 260.167969 C 163.808594 255.449219 167.328125 251.320312 172.042969 250.945312 L 227.054688 246.558594 C 229.28125 246.382812 231.367188 247.078125 233 248.351562 L 253.992188 263.449219 C 256.121094 264.851562 257.605469 267.179688 257.824219 269.917969 L 258.78125 281.898438 C 258.824219 282.4375 258.898438 282.964844 258.984375 283.484375 C 268.066406 281.765625 274.609375 273.4375 273.859375 264.011719 L 264.757812 149.855469 C 264.378906 145.136719 267.898438 141.007812 272.613281 140.628906 L 327.625 136.242188 C 329.402344 136.101562 331.097656 136.515625 332.539062 137.335938 C 332.539062 137.335938 332.542969 137.339844 332.546875 137.339844 C 333.054688 137.628906 333.527344 137.972656 333.964844 138.359375 L 354.410156 153.039062 C 354.726562 153.238281 355.027344 153.449219 355.3125 153.683594 L 355.335938 153.703125 C 357.042969 155.128906 358.203125 157.210938 358.394531 159.605469 Z M 358.394531 159.605469 " fill-opacity="1" fill-rule="nonzero"/></g></g></g><g clip-path="url(#20d2fb3d94)"><g clip-path="url(#e14b5d9972)"><g clip-path="url(#1badac8521)"><path fill="#000000" d="M 358.394531 159.605469 L 367.496094 273.765625 C 371.511719 324.089844 333.460938 368.242188 282.921875 371.496094 C 260.652344 372.929688 239.796875 366.003906 223.195312 353.472656 L 223.1875 353.496094 L 207.945312 342.328125 C 223.390625 352.074219 241.835938 357.253906 261.371094 355.996094 C 311.910156 352.742188 349.960938 308.59375 345.949219 258.265625 L 336.84375 144.105469 C 336.660156 141.796875 335.574219 139.777344 333.960938 138.359375 L 354.410156 153.039062 C 354.722656 153.238281 355.027344 153.449219 355.308594 153.683594 L 355.335938 153.703125 C 357.042969 155.128906 358.203125 157.210938 358.394531 159.605469 Z M 236.277344 254.421875 L 237.230469 266.402344 C 238.015625 276.242188 246.238281 284.125 256.101562 283.824219 C 257.089844 283.796875 258.046875 283.664062 258.984375 283.488281 C 258.898438 282.964844 258.824219 282.4375 258.78125 281.898438 L 257.824219 269.917969 C 257.605469 267.179688 256.121094 264.851562 253.992188 263.449219 L 233 248.351562 C 234.824219 249.777344 236.078125 251.925781 236.277344 254.421875 Z M 236.277344 254.421875 " fill-opacity="1" fill-rule="nonzero"/></g></g></g><g clip-path="url(#342734667b)"><g clip-path="url(#f216abdeca)"><g clip-path="url(#ccc74c47e0)"><path fill="#5271ff" d="M 261.371094 355.996094 C 311.910156 352.742188 349.960938 308.59375 345.949219 258.265625 L 336.84375 144.105469 C 336.660156 141.796875 335.574219 139.777344 333.960938 138.359375 C 333.527344 137.972656 333.050781 137.628906 332.546875 137.339844 C 332.542969 137.339844 332.539062 137.335938 332.539062 137.335938 C 331.097656 136.515625 329.402344 136.101562 327.625 136.242188 L 272.613281 140.628906 C 267.898438 141.007812 264.378906 145.136719 264.753906 149.855469 L 273.859375 264.015625 C 274.609375 273.4375 268.066406 281.769531 258.984375 283.488281 C 258.046875 283.664062 257.089844 283.792969 256.101562 283.824219 C 246.238281 284.125 238.015625 276.242188 237.230469 266.402344 L 236.277344 254.421875 C 236.078125 251.929688 234.824219 249.777344 233 248.351562 C 231.367188 247.078125 229.28125 246.382812 227.054688 246.558594 L 172.042969 250.945312 C 167.328125 251.320312 163.808594 255.449219 164.1875 260.167969 L 165.074219 271.308594 C 167.101562 296.75 179.332031 319.191406 197.441406 334.605469 C 197.527344 334.675781 197.609375 334.746094 197.695312 334.816406 C 200.933594 337.550781 204.355469 340.0625 207.945312 342.328125 C 223.390625 352.074219 241.835938 357.253906 261.371094 355.996094 Z M 338.367188 265.164062 C 338.28125 279.636719 334.722656 293.863281 327.503906 306.449219 C 325.714844 309.566406 322.316406 310.90625 318.925781 309.445312 C 315.894531 308.140625 314.25 303.785156 315.929688 300.863281 C 317.5 298.117188 318.925781 295.296875 320.15625 292.382812 C 320.777344 290.917969 321.324219 289.429688 321.878906 287.941406 C 321.976562 287.652344 322.027344 287.503906 322.050781 287.433594 C 322.132812 287.183594 322.210938 286.933594 322.289062 286.683594 C 322.523438 285.917969 322.75 285.148438 322.960938 284.378906 C 323.8125 281.265625 324.464844 278.101562 324.914062 274.90625 C 325.140625 273.289062 325.3125 271.664062 325.4375 270.035156 C 325.457031 269.773438 325.472656 269.515625 325.488281 269.257812 C 325.488281 269.203125 325.496094 269.023438 325.511719 268.671875 C 325.527344 267.84375 325.550781 267.015625 325.558594 266.1875 C 325.578125 262.574219 327.75 259.730469 331.449219 259.269531 C 334.691406 258.863281 338.386719 261.792969 338.367188 265.164062 Z M 331.386719 255.25 C 327.792969 255.535156 324.902344 252.8125 324.46875 249.355469 C 324.039062 245.90625 327.015625 242.703125 330.363281 242.4375 C 333.953125 242.148438 336.847656 244.875 337.277344 248.332031 C 337.710938 251.78125 334.734375 254.984375 331.386719 255.25 Z M 331.386719 255.25 " fill-opacity="1" fill-rule="nonzero"/></g></g></g><g clip-path="url(#50fe27bbad)"><g clip-path="url(#d697a4ab16)"><g clip-path="url(#9d50c29677)"><path fill="#ffd891" d="M 338.367188 265.164062 C 338.28125 279.636719 334.722656 293.863281 327.503906 306.449219 C 325.714844 309.566406 322.316406 310.90625 318.925781 309.445312 C 315.894531 308.140625 314.25 303.785156 315.929688 300.863281 C 317.5 298.117188 318.925781 295.296875 320.15625 292.382812 C 320.777344 290.917969 321.324219 289.429688 321.878906 287.941406 C 321.976562 287.652344 322.027344 287.503906 322.050781 287.433594 C 322.132812 287.183594 322.210938 286.933594 322.289062 286.683594 C 322.523438 285.917969 322.75 285.148438 322.960938 284.378906 C 323.8125 281.265625 324.464844 278.101562 324.914062 274.90625 C 325.140625 273.289062 325.3125 271.664062 325.4375 270.035156 C 325.457031 269.773438 325.472656 269.515625 325.488281 269.257812 C 325.488281 269.203125 325.496094 269.023438 325.511719 268.671875 C 325.527344 267.84375 325.550781 267.015625 325.558594 266.1875 C 325.578125 262.574219 327.75 259.730469 331.449219 259.269531 C 334.691406 258.863281 338.386719 261.792969 338.367188 265.164062 Z M 330.363281 242.4375 C 327.015625 242.703125 324.039062 245.90625 324.46875 249.355469 C 324.902344 252.8125 327.792969 255.535156 331.386719 255.25 C 334.734375 254.984375 337.710938 251.78125 337.277344 248.332031 C 336.847656 244.875 333.953125 242.148438 330.363281 242.4375 Z M 330.363281 242.4375 " fill-opacity="1" fill-rule="nonzero"/></g></g></g><g clip-path="url(#3cb6f6097f)"><path fill="#7d6e99" d="M 311.109375 68.484375 C 311.554688 68.921875 311.828125 69.527344 311.828125 70.195312 C 311.828125 70.867188 311.554688 71.472656 311.109375 71.910156 L 286.648438 96.113281 C 286.203125 96.554688 285.589844 96.824219 284.914062 96.824219 C 283.5625 96.824219 282.464844 95.738281 282.464844 94.402344 C 282.464844 93.734375 282.742188 93.125 283.183594 92.6875 L 305.917969 70.195312 L 283.183594 47.707031 C 282.742188 47.269531 282.464844 46.660156 282.464844 45.992188 C 282.464844 44.652344 283.5625 43.570312 284.914062 43.570312 C 285.589844 43.570312 286.203125 43.839844 286.648438 44.277344 Z M 245.773438 96.820312 C 245.777344 96.820312 245.777344 96.820312 245.78125 96.820312 C 247.128906 96.820312 248.226562 95.738281 248.226562 94.402344 C 248.226562 93.730469 247.953125 93.125 247.507812 92.6875 L 224.769531 70.195312 L 247.507812 47.707031 C 247.949219 47.269531 248.222656 46.660156 248.222656 45.992188 C 248.222656 44.652344 247.128906 43.570312 245.773438 43.570312 C 245.097656 43.570312 244.484375 43.839844 244.042969 44.277344 L 219.578125 68.484375 C 219.132812 68.921875 218.859375 69.527344 218.859375 70.195312 C 218.859375 70.867188 219.132812 71.472656 219.578125 71.910156 L 244.042969 96.113281 C 244.484375 96.550781 245.097656 96.820312 245.769531 96.820312 C 245.773438 96.820312 245.773438 96.820312 245.773438 96.820312 Z M 245.773438 96.820312 " fill-opacity="1" fill-rule="nonzero"/></g></svg>