<?xml version="1.0" encoding="UTF-8"?>
<svg id="Camada_1" data-name="Camada 1" xmlns="http://www.w3.org/2000/svg" viewBox="0 0 24 24">
  <defs>
    <style>
      .cls-1 {
        stroke: #125b31;
        stroke-linecap: round;
        stroke-linejoin: round;
      }

      .cls-1, .cls-2 {
        fill: none;
      }

      .cls-3 {
        fill: #fff;
      }

      .cls-4 {
        fill: #81b381;
      }
    </style>
  </defs>
  <polygon class="cls-3" points="4.8 5.5 1.5 9.5 4.8 13.5 7 13.5 11.5 9.5 7 5.5 4.8 5.5"/>
  <polygon class="cls-3" points="7.5 19.5 11.5 22 15.5 19.5 15.5 13.1 11.5 9.5 7.5 13.1 7.5 19.5"/>
  <polygon class="cls-3" points="18.3 5.5 16 5.5 11.5 9.5 16 13.5 18.3 13.5 21.5 9.5 18.3 5.5"/>
  <rect class="cls-4" x="7.5" y="12.5" width="8" height="3"/>
  <polygon class="cls-4" points="15.5 19.5 11.5 22 7.5 19.5 7.5 18.5 15.5 18.5 15.5 19.5"/>
  <polygon class="cls-4" points="14.7 6.7 11.5 3.8 11.5 3.8 8.3 6.7 11.5 9.5 14.7 6.7"/>
  <polygon class="cls-4" points="18.3 5.5 16 13.5 18.3 13.5 21.5 9.5 18.3 5.5"/>
  <polygon class="cls-4" points="7 5.5 4.5 13.5 7 13.5 11.5 9.5 7 5.5"/>
  <polygon class="cls-1" points="7 5.5 11.5 9.5 7 13.5 4.8 13.5 1.5 9.5 4.8 5.5 7 5.5"/>
  <polyline class="cls-1" points="8.3 6.7 14 1.5 15 1.5"/>
  <polyline class="cls-1" points="14.7 6.7 9 1.5 8 1.5"/>
  <polygon class="cls-1" points="14.7 6.7 11.5 3.8 11.5 3.8 8.3 6.7 11.5 9.5 14.7 6.7"/>
  <polyline class="cls-1" points="7.5 13.1 7.5 19.5 11.5 22 15.5 19.5 15.5 13.1"/>
  <line class="cls-1" x1="11.5" y1="23.5" x2="11.5" y2="22"/>
  <line class="cls-1" x1="7.5" y1="18.5" x2="15.5" y2="18.5"/>
  <line class="cls-1" x1="7.5" y1="15.5" x2="15.5" y2="15.5"/>
  <line class="cls-1" x1="8.1" y1="12.5" x2="14.9" y2="12.5"/>
  <polygon class="cls-1" points="16 5.5 11.5 9.5 16 13.5 18.3 13.5 21.5 9.5 18.3 5.5 16 5.5"/>
  <g id="Frames-24px">
    <rect class="cls-2" width="24" height="24"/>
  </g>
</svg>