<?xml version="1.0" encoding="UTF-8"?>
<svg id="Camada_1" data-name="Camada 1" xmlns="http://www.w3.org/2000/svg" viewBox="0 0 24 24">
  <defs>
    <style>
      .cls-1 {
        stroke: #125b31;
        stroke-linecap: round;
        stroke-linejoin: round;
      }

      .cls-1, .cls-2 {
        fill: none;
      }

      .cls-3 {
        fill: #fff;
      }

      .cls-4 {
        fill: #81b381;
      }
    </style>
  </defs>
  <polygon class="cls-3" points="16.5 13.5 16.5 12.5 11.5 10.5 6.5 12.5 6.5 13.5 3.5 12.5 4 14.5 6.5 15.5 6.5 16.5 8.5 18.5 8.5 21.5 11.5 23.5 14.5 21.5 14.5 18.5 16.5 16.5 16.5 15.5 19 14.5 19.5 12.5 16.5 13.5"/>
  <polygon class="cls-4" points="6.5 16.5 9.5 16.5 10.5 18 10.5 20.5 11.5 21.5 12.5 20.5 12.5 18 13.5 16.5 16.5 16.5 14.5 18.5 14.5 21.5 11.5 23.5 8.5 21.5 8.5 18.5 6.5 16.5"/>
  <polyline class="cls-1" points="6.5 12.5 2 8 .5 2.5"/>
  <polygon class="cls-1" points="14.5 21.5 11.5 23.5 8.5 21.5 8.5 18.5 6.5 16.5 6.5 12.5 11.5 10.5 16.5 12.5 16.5 16.5 14.5 18.5 14.5 21.5"/>
  <line class="cls-1" x1="9.5" y1="14.5" x2="9.5" y2="15.5"/>
  <line class="cls-1" x1="13.5" y1="14.5" x2="13.5" y2="15.5"/>
  <line class="cls-1" x1="11.5" y1="21.5" x2="11.5" y2="23.5"/>
  <polyline class="cls-1" points="6.5 13.5 3.5 12.5 4 14.5 6.5 15.5"/>
  <polyline class="cls-1" points="16.5 13.5 19.5 12.5 19 14.5 16.5 15.5"/>
  <polyline class="cls-1" points="5.5 11.5 5.5 8.5 7 6.5"/>
  <polyline class="cls-1" points="2 8 3.5 4.5 6.5 2.5"/>
  <polyline class="cls-1" points="4.5 10.5 1 10.5 .5 9.5"/>
  <polyline class="cls-1" points="16.5 12.5 21 8 22.5 2.5"/>
  <polyline class="cls-1" points="17.5 11.5 17.5 8.5 16 6.5"/>
  <polyline class="cls-1" points="21 8 19.5 4.5 16.5 2.5"/>
  <polyline class="cls-1" points="18.5 10.5 22 10.5 22.5 9.5"/>
  <g id="Frames-24px">
    <rect class="cls-2" width="24" height="24"/>
  </g>
</svg>