<?xml version="1.0" encoding="UTF-8"?>
<svg id="Camada_1" data-name="Camada 1" xmlns="http://www.w3.org/2000/svg" viewBox="0 0 24 24">
  <defs>
    <style>
      .cls-1 {
        stroke: #125b31;
        stroke-linecap: round;
        stroke-linejoin: round;
      }

      .cls-1, .cls-2 {
        fill: none;
      }

      .cls-3 {
        fill: #fff;
      }

      .cls-4 {
        fill: #81b381;
      }
    </style>
  </defs>
  <polygon class="cls-3" points="8 4.5 3.5 1.5 3.5 12 1.5 19 11.5 22.5 21.5 19 19.5 12 19.5 1.5 15 4.5 8 4.5"/>
  <polygon class="cls-4" points="1.5 19 4 17.5 11.5 20 20 17.5 21.5 19 11.5 22.5 1.5 19"/>
  <polyline class="cls-4" points="8 4.5 9.5 8.5 11.5 4.5"/>
  <polyline class="cls-4" points="11.5 4.5 13.5 8.5 15 4.5"/>
  <polyline class="cls-1" points="8 4.5 9.5 8.5 11.5 4.5"/>
  <polyline class="cls-1" points="11.5 4.5 13.5 8.5 15 4.5"/>
  <line class="cls-1" x1="11.5" y1="22.5" x2="11.5" y2="17.5"/>
  <polyline class="cls-1" points="9 15.5 11.5 17.5 14 15.5"/>
  <line class="cls-1" x1="8.5" y1="10.5" x2="8.5" y2="11.5"/>
  <line class="cls-1" x1="14.5" y1="10.5" x2="14.5" y2="11.5"/>
  <line class="cls-1" x1="17.5" y1="15.5" x2="22.5" y2="13.5"/>
  <line class="cls-1" x1="18" y1="17.5" x2="22.5" y2="16.5"/>
  <polygon class="cls-1" points="8 4.5 3.5 1.5 3.5 12 1.5 19 11.5 22.5 21.5 19 19.5 12 19.5 1.5 15 4.5 8 4.5"/>
  <line class="cls-1" x1="5.5" y1="15.5" x2=".5" y2="13.5"/>
  <line class="cls-1" x1="5" y1="17.5" x2=".5" y2="16.5"/>
  <g id="Frames-24px">
    <rect class="cls-2" width="24" height="24"/>
  </g>
</svg>