<?xml version="1.0" encoding="UTF-8"?>
<svg id="Camada_1" data-name="Camada 1" xmlns="http://www.w3.org/2000/svg" viewBox="0 0 24 24">
  <defs>
    <style>
      .cls-1 {
        stroke: #125b31;
        stroke-linecap: round;
        stroke-linejoin: round;
      }

      .cls-1, .cls-2 {
        fill: none;
      }

      .cls-3 {
        fill: #fff;
      }

      .cls-4 {
        fill: #81b381;
      }
    </style>
  </defs>
  <path class="cls-3" d="m18.5,5.5l-.5-3h-3l-3.5-2-3.5,2h-3l-.5,3-3,1,.5,3.5,2.5,1,1-.5v10l6,3,6-3v-10l1,.5,2.5-1,.5-4-3-.5Z"/>
  <polyline class="cls-3" points="5.5 13.5 3.5 13.5 1.5 16.5 3.5 16.5 5.5 15.5"/>
  <polyline class="cls-3" points="17.5 13.5 19.5 13.5 21.5 16.5 19.5 16.5 17.5 15.5"/>
  <polygon class="cls-4" points="17.5 10.5 16.5 10 14 11 11.5 10 9 11 6.5 10 5.5 10.5 5.5 13 6.5 12.5 9 13.5 11.5 12.5 14 13.5 16.5 12.5 17.5 13 17.5 10.5"/>
  <polyline class="cls-1" points="17.5 10.5 17.5 20.5 11.5 23.5 5.5 20.5 5.5 10.5"/>
  <polygon class="cls-1" points="11.5 10 14 11 16.5 10 18.5 11 21 10 21.5 6 18.5 5.5 18 2.5 15 2.5 11.5 .5 8 2.5 5 2.5 4.5 5.5 1.5 6.5 2 10 4.5 11 6.5 10 9 11 11.5 10"/>
  <line class="cls-1" x1="8.5" y1="15.5" x2="8.5" y2="14.5"/>
  <line class="cls-1" x1="14.5" y1="15.5" x2="14.5" y2="14.5"/>
  <polyline class="cls-1" points="5.5 13.5 3.5 13.5 1.5 16.5 3.5 16.5 5.5 15.5"/>
  <polyline class="cls-1" points="17.5 13.5 19.5 13.5 21.5 16.5 19.5 16.5 17.5 15.5"/>
  <line class="cls-1" x1="10.5" y1="18.5" x2="10.5" y2="19.5"/>
  <line class="cls-1" x1="12.5" y1="18.5" x2="12.5" y2="19.5"/>
  <g id="Frames-24px">
    <rect class="cls-2" width="24" height="24"/>
  </g>
</svg>