<?xml version="1.0" encoding="UTF-8"?>
<svg id="Camada_1" data-name="Camada 1" xmlns="http://www.w3.org/2000/svg" viewBox="0 0 24 24">
  <defs>
    <style>
      .cls-1 {
        stroke: #125b31;
        stroke-linecap: round;
        stroke-linejoin: round;
      }

      .cls-1, .cls-2 {
        fill: none;
      }

      .cls-3 {
        fill: #fff;
      }

      .cls-4 {
        fill: #81b381;
      }
    </style>
  </defs>
  <polygon class="cls-3" points="23.5 .5 19.5 5.5 16 7 12 5.5 8 7 4.5 5.5 .5 .5 1.5 6.5 5.5 10.5 1.5 12 4 14.5 5.8 12.7 6.5 18.2 6.5 18.2 5.5 18.5 7 23.5 9.5 23.5 12 22 14.5 23.5 17 23.5 18.5 18.5 17.5 18.2 17.5 18.2 18.2 12.7 20 14.5 22.5 12 18.5 10.5 22.5 6.5 23.5 .5"/>
  <polygon class="cls-4" points="6.5 18.2 12 16.5 17.8 18.3 17.8 18.3 17.5 18.2 17.5 18.2 18.2 12.9 15 9 12 8 9 9 5.8 12.9 6.5 18.2"/>
  <polygon class="cls-4" points="5.5 18.5 9 21.5 12 19.5 15 21.5 18.5 18.5 17 23.5 14.5 23.5 12 22 9.5 23.5 7 23.5 5.5 18.5"/>
  <polyline class="cls-1" points="6.5 18.2 5.5 10.5 8 7 12 5.5 16 7 18.5 10.5 17.5 18.2"/>
  <polygon class="cls-1" points="17 23.5 14.5 23.5 12 22 9.5 23.5 7 23.5 5.5 18.5 12 16.5 18.5 18.5 17 23.5"/>
  <polyline class="cls-1" points="8 7 4.5 5.5 .5 .5 1.5 6.5 5.5 10.5 1.5 12 4 14.5 5.8 12.7"/>
  <polyline class="cls-1" points="16 7 19.5 5.5 23.5 .5 22.5 6.5 18.5 10.5 22.5 12 20 14.5 18.2 12.7"/>
  <line class="cls-1" x1="9.5" y1="12.5" x2="9.5" y2="11.5"/>
  <line class="cls-1" x1="10.5" y1="19.5" x2="10.5" y2="20.5"/>
  <line class="cls-1" x1="14.5" y1="12.5" x2="14.5" y2="11.5"/>
  <line class="cls-1" x1="13.5" y1="19.5" x2="13.5" y2="20.5"/>
  <g id="Frames-24px">
    <rect class="cls-2" width="24" height="24"/>
  </g>
</svg>